# xmcd
#
# Track frame offsets:
#	150
#	23818
#	50893
#	75361
#	99723
#	123389
#	143477
#	170276
#	206714
#
# Disc length: 3105 seconds
#
# Revision: 0
# Processed by: cddbd v1.5.2PL0 Copyright (c) Steve Scherf et al.
# Submitted via: EasyCDDAExtractor 16.0.9.1
#
DISCID=730c1f09
DTITLE=Various Artist - Italian Renaissance
DYEAR=2002
DGENRE=Euro-House
TTITLE0=Kate Project - Time After Time (Club Remix)
TTITLE1=U-Traxx - Imagine (Full Vocal Power Mix)
TTITLE2=Mikki - Meteor Man (Candies Mix)
TTITLE3=Heartclub - Don't Stop (New Power Mix)
TTITLE4=Free Boy - This Is My Life (Johnny Mix)
TTITLE5=Alisha - Sometimes (Power Club Mix)
TTITLE6=Bakerstreet - Words (F.T. and Company Edit)
TTITLE7=Limite - I Can't Feel It (The Pepe's Mix)
TTITLE8=T-Zone - Reach Out (D-Floor Filler Mix)
EXTD=
EXTT0=
EXTT1=
EXTT2=
EXTT3=
EXTT4=
EXTT5=
EXTT6=
EXTT7=
EXTT8=
PLAYORDER=
